<?xml version="1.0" encoding="utf-8"?>
<!-- Generator: Adobe Illustrator 17.0.0, SVG Export Plug-In . SVG Version: 6.00 Build 0)  -->
<!DOCTYPE svg PUBLIC "-//W3C//DTD SVG 1.1//EN" "http://www.w3.org/Graphics/SVG/1.1/DTD/svg11.dtd">
<svg version="1.1" xmlns="http://www.w3.org/2000/svg" xmlns:xlink="http://www.w3.org/1999/xlink" x="0px" y="0px" width="280px"
	 height="275px" viewBox="0 0 280 275" enable-background="new 0 0 280 275" xml:space="preserve">
<g id="Layer_1">
	<g id="Layer_1_2_">
		<g id="Layer_1_1_">
			<path fill="#333333" stroke="#FFFFFF" stroke-miterlimit="10" d="M140,11.677c-69.49,0-125.823,56.331-125.823,125.823
				c0,69.49,56.333,125.823,125.823,125.823S265.823,206.99,265.823,137.5C265.823,68.009,209.49,11.677,140,11.677z"/>
		</g>
	</g>
	<g id="Layer_4">
	</g>
</g>
<g id="Layer_3">
	<path fill="#FFFFFF" d="M112.307,203.969c0,1.084-0.879,1.963-1.963,1.963H80.463c-1.084,0-1.963-0.879-1.963-1.963v-68.006
		c0-1.084,0.879-1.963,1.963-1.963h29.881c1.084,0,1.963,0.879,1.963,1.963V203.969z"/>
	<path fill="#FFFFFF" d="M168.904,203.969c0,1.084-0.879,1.963-1.963,1.963h-29.881c-1.084,0-1.963-0.879-1.963-1.963v-38.006
		c0-1.084,0.879-1.963,1.963-1.963h29.881c1.084,0,1.963,0.879,1.963,1.963V203.969z"/>
	<path fill="#FFFFFF" d="M223.904,203.969c0,1.084-0.879,1.963-1.963,1.963h-29.881c-1.084,0-1.963-0.879-1.963-1.963v-88.006
		c0-1.084,0.879-1.963,1.963-1.963h29.881c1.084,0,1.963,0.879,1.963,1.963V203.969z"/>
	<polyline fill="none" stroke="#FFFFFF" stroke-width="5" stroke-miterlimit="10" points="95.404,94 152,134 207,78 	"/>
	<circle fill="#FFFFFF" cx="95.404" cy="92" r="8.5"/>
	<circle fill="#FFFFFF" cx="40.755" cy="124.179" r="8.5"/>
	<circle fill="#FFFFFF" cx="151.404" cy="134" r="8.5"/>
	<circle fill="#FFFFFF" cx="207.404" cy="78" r="8.5"/>
	<line fill="none" stroke="#FFFFFF" stroke-width="6" stroke-miterlimit="10" x1="95.404" y1="92" x2="40.755" y2="124.179"/>
</g>
</svg>
